<?xml version="1.0" standalone="no"?>
<!DOCTYPE svg PUBLIC "-//W3C//DTD SVG 20010904//EN"
 "http://www.w3.org/TR/2001/REC-SVG-20010904/DTD/svg10.dtd">
<svg version="1.0" xmlns="http://www.w3.org/2000/svg"
 width="1024.000000pt" height="292.000000pt" viewBox="0 0 1024.000000 292.000000"
 preserveAspectRatio="xMidYMid meet">

<g transform="translate(0.000000,292.000000) scale(0.100000,-0.100000)"
fill="#000000" stroke="none">
<path d="M6338 2263 c-2 -362 -1 -732 1 -821 l3 -164 -148 3 c-82 1 -149 -1
-149 -6 0 -5 66 -7 147 -6 l148 3 -2 -146 c0 -80 -5 -146 -10 -146 -4 0 -3 -9
4 -20 11 -17 25 -20 93 -22 l80 -2 -77 -3 -78 -4 0 -34 c0 -38 18 -56 32 -31
9 16 58 23 58 8 0 -4 -17 -25 -38 -45 l-38 -37 -152 0 -152 0 0 44 c0 86 -44
146 -108 146 -38 0 -38 0 -34 -35 3 -28 9 -35 26 -35 44 0 46 -10 46 -280 0
-186 -3 -259 -12 -268 -13 -13 -302 -18 -296 -4 2 4 21 39 43 79 l40 71 81 4
c93 3 124 21 124 69 0 38 -24 59 -68 60 l-37 1 35 10 c49 14 60 26 60 63 0 40
-17 55 -70 62 -32 5 -40 9 -35 22 3 8 9 58 12 111 13 230 -79 415 -245 493
-57 26 -81 32 -157 34 -78 3 -101 0 -174 -25 -67 -24 -91 -28 -113 -20 -57 20
-138 -32 -138 -88 0 -29 7 -30 36 -3 17 16 29 19 58 14 31 -6 36 -12 42 -42 5
-27 2 -39 -15 -57 -27 -29 -27 -36 3 -36 33 0 73 34 88 76 29 81 201 121 332
78 71 -24 155 -109 185 -187 28 -78 43 -187 36 -267 -10 -96 -11 -100 -51
-100 l-34 0 0 -112 0 -113 -41 -75 c-22 -41 -58 -98 -80 -127 -21 -29 -39 -57
-39 -63 0 -17 395 -12 437 5 41 17 63 64 63 135 l0 50 153 0 152 -1 75 -74 75
-75 101 0 102 0 34 -38 c19 -21 43 -42 52 -45 10 -4 23 -20 29 -36 6 -18 21
-32 34 -36 13 -3 27 -15 32 -26 7 -21 10 -21 429 -20 414 2 421 2 432 -18 13
-26 52 -36 79 -21 24 12 29 68 9 88 -21 21 -66 14 -84 -13 l-17 -25 -405 0
-406 1 -106 105 -105 104 -105 0 -106 0 -69 70 -69 70 -158 0 -158 0 0 49 c0
45 2 49 27 56 15 3 98 5 184 4 l158 -2 78 -79 78 -78 124 0 124 0 86 85 87 85
175 0 174 0 85 -85 85 -85 259 0 c235 0 260 -2 272 -18 13 -16 15 -16 28 0 11
15 29 18 97 18 73 0 86 -3 97 -20 18 -29 67 -27 87 4 39 59 -40 110 -87 55
-15 -18 -32 -19 -385 -19 l-368 0 -79 80 -79 80 -191 0 -191 0 -85 -85 -84
-85 -111 1 -110 0 -90 89 -90 90 -175 3 -175 3 176 2 175 2 85 85 84 85 120 0
120 0 85 -85 85 -85 193 0 c190 0 193 0 201 23 5 12 38 50 74 84 l64 63 367 0
c352 0 369 -1 384 -19 29 -33 78 -31 94 4 9 19 8 29 -6 50 -12 18 -13 25 -4
26 7 1 27 2 43 4 17 1 436 3 933 4 l902 1 0 25 0 25 -872 3 -873 2 873 3 872
2 0 990 0 990 -1950 0 -1950 0 -2 -657z m2062 -163 l0 -440 -25 0 -25 0 0 440
0 440 25 0 25 0 0 -440z m-1370 370 c20 -5 56 -23 82 -39 133 -85 138 -336 7
-430 -68 -50 -123 -61 -301 -61 l-158 0 0 -140 0 -140 -25 0 -25 0 0 410 0
410 193 0 c105 0 208 -5 227 -10z m2058 -196 c38 -12 52 -22 52 -36 0 -21 -16
-23 -57 -7 -50 19 -193 29 -241 17 -59 -15 -112 -65 -112 -107 0 -70 40 -97
207 -136 191 -45 243 -84 243 -183 0 -64 -29 -108 -95 -141 -45 -23 -61 -25
-155 -25 -76 1 -124 7 -174 22 -78 24 -89 31 -77 51 7 11 23 10 91 -9 94 -25
215 -30 272 -11 88 29 126 125 71 180 -27 26 -62 39 -248 90 -44 12 -97 33
-118 47 -115 75 -71 215 83 265 39 13 200 3 258 -17z m751 9 c62 -20 125 -71
153 -127 26 -50 48 -130 48 -173 l0 -33 -291 0 -291 0 7 -37 c9 -48 27 -84 67
-128 46 -53 101 -77 185 -83 89 -6 149 10 215 55 46 32 78 37 78 14 0 -18 -75
-71 -130 -93 -40 -16 -78 -22 -140 -22 -77 -1 -92 2 -152 32 -105 51 -164 138
-175 256 -14 149 82 299 221 342 58 18 145 17 205 -3z m-2329 -189 c0 -221 8
-266 56 -323 49 -57 103 -75 208 -69 69 4 96 10 150 37 l66 32 2 257 3 257 23
3 22 3 0 -315 0 -316 -25 0 c-22 0 -25 4 -25 36 l0 35 -27 -19 c-16 -11 -50
-27 -77 -36 -164 -56 -326 -11 -389 107 -21 39 -22 57 -25 275 -3 229 -3 232
17 232 21 0 21 -5 21 -196z m-733 -1160 c-3 -3 -12 -4 -19 -1 -8 3 -5 6 6 6
11 1 17 -2 13 -5z m121 -1 c-21 -2 -55 -2 -75 0 -21 2 -4 4 37 4 41 0 58 -2
38 -4z m90 0 c-10 -2 -26 -2 -35 0 -10 3 -2 5 17 5 19 0 27 -2 18 -5z m75 0
c-7 -2 -19 -2 -25 0 -7 3 -2 5 12 5 14 0 19 -2 13 -5z m305 0 c-10 -2 -26 -2
-35 0 -10 3 -2 5 17 5 19 0 27 -2 18 -5z m100 0 c-10 -2 -28 -2 -40 0 -13 2
-5 4 17 4 22 1 32 -1 23 -4z m85 0 c-7 -2 -21 -2 -30 0 -10 3 -4 5 12 5 17 0
24 -2 18 -5z m275 0 c-43 -2 -113 -2 -155 0 -43 1 -8 3 77 3 85 0 120 -2 78
-3z m155 0 c-7 -2 -19 -2 -25 0 -7 3 -2 5 12 5 14 0 19 -2 13 -5z m155 0 c-21
-2 -57 -2 -80 0 -24 2 -7 4 37 4 44 0 63 -2 43 -4z m349 1 c-3 -3 -12 -4 -19
-1 -8 3 -5 6 6 6 11 1 17 -2 13 -5z m-1416 -65 c10 -5 20 -5 23 -1 5 9 1182 9
1191 1 2 -3 -2 -15 -10 -26 -15 -21 -20 -21 -387 -22 l-372 -1 -81 -80 -80
-80 -180 0 -180 0 -77 77 c-43 43 -78 85 -78 95 0 24 -21 34 -32 14 -14 -24
-155 -23 -174 1 -11 16 -22 8 -114 -82 -56 -55 -107 -99 -115 -97 -7 1 -16 -2
-20 -8 -8 -13 -280 -13 -306 0 -15 8 -19 22 -19 60 l0 50 153 0 153 0 55 54
56 55 288 0 c162 0 296 -4 306 -10z m1277 -18 c8 -5 12 -21 10 -37 -2 -24 -8
-29 -35 -32 -28 -3 -33 1 -39 23 -10 42 27 70 64 46z m-2474 -140 c10 -16 -5
-41 -25 -41 -19 0 -27 29 -12 43 9 10 31 9 37 -2z m5 -99 c13 -25 -4 -42 -40
-42 -32 0 -43 12 -34 40 8 26 60 27 74 2z m1961 -446 c6 -8 10 -25 8 -38 -2
-19 -9 -23 -38 -23 -29 0 -36 4 -38 23 -6 44 41 70 68 38z"/>
<path d="M6660 2211 l0 -231 140 0 c164 0 225 11 279 51 58 42 84 98 84 184 1
106 -34 161 -128 205 -20 9 -86 15 -202 18 l-173 4 0 -231z"/>
<path d="M9615 2229 c-81 -40 -162 -152 -153 -212 3 -22 4 -22 266 -25 l262
-2 -1 32 c-1 78 -61 173 -132 207 -59 29 -184 29 -242 0z"/>
<path d="M7360 805 c0 -8 7 -15 15 -15 8 0 15 7 15 15 0 8 -7 15 -15 15 -8 0
-15 -7 -15 -15z"/>
<path d="M7070 775 c0 -8 7 -15 15 -15 8 0 15 7 15 15 0 8 -7 15 -15 15 -8 0
-15 -7 -15 -15z"/>
<path d="M7395 781 c-3 -5 -1 -12 5 -16 12 -7 30 2 30 16 0 12 -27 12 -35 0z"/>
<path d="M7357 743 c-4 -3 -7 -12 -7 -20 0 -15 26 -18 34 -4 7 11 -18 33 -27
24z"/>
<path d="M2103 2576 c-78 -19 -153 -60 -219 -120 -155 -140 -192 -362 -94
-557 29 -56 239 -262 303 -295 82 -43 160 -57 272 -51 138 8 238 41 323 104
l32 24 0 140 c0 132 -1 139 -20 139 -13 0 -20 7 -20 18 0 10 -12 22 -30 29
-28 10 -30 15 -30 62 l0 51 -210 0 -210 0 0 -75 0 -75 49 0 c57 0 75 -16 65
-55 -8 -33 6 -44 56 -45 33 -1 34 -1 15 -16 -54 -40 -194 -49 -269 -16 -61 28
-85 77 -86 178 0 118 57 210 164 267 33 17 58 21 131 21 101 0 155 -12 210
-50 l38 -25 39 38 c48 46 75 92 56 94 -7 1 -17 1 -21 0 -5 -1 -6 3 -3 8 4 5 2
12 -4 16 -5 3 -10 1 -10 -4 0 -6 -17 -10 -37 -10 -24 1 -29 3 -15 6 26 5 30
28 6 37 -11 4 -14 13 -10 29 4 18 -3 28 -42 54 -123 83 -286 113 -429 79z m67
-212 c0 -7 -8 -11 -17 -9 -10 2 -22 4 -26 4 -5 1 -6 5 -2 10 8 14 45 9 45 -5z
m45 -14 c3 -5 1 -10 -4 -10 -6 0 -11 5 -11 10 0 6 2 10 4 10 3 0 8 -4 11 -10z
m-25 -14 c0 -2 -7 -6 -15 -10 -8 -3 -15 -1 -15 4 0 6 7 10 15 10 8 0 15 -2 15
-4z m-50 -25 c0 -6 -5 -13 -12 -17 -6 -4 -8 -3 -4 4 3 6 -2 13 -11 15 -14 4
-13 5 5 6 12 0 22 -3 22 -8z m-114 -41 c0 -11 -4 -20 -8 -20 -5 0 -12 0 -18 0
-5 0 -10 8 -10 18 1 15 2 15 17 -3 11 -14 14 -15 10 -3 -3 9 -3 19 0 22 9 9
10 8 9 -14z m4 -74 c0 -2 -8 -10 -17 -17 -16 -13 -17 -12 -4 4 13 16 21 21 21
13z m596 -472 c-3 -9 -6 -23 -7 -32 -1 -11 -4 -8 -10 8 -8 23 -8 22 -6 -7 3
-25 -1 -34 -16 -39 -10 -3 -21 -3 -24 0 -4 3 1 6 10 6 10 0 17 5 17 10 0 6
-12 8 -27 4 -16 -3 -23 -2 -16 3 6 4 13 17 15 28 4 25 17 35 47 35 17 0 22 -4
17 -16z m-146 -69 c0 -8 -4 -15 -10 -15 -5 0 -10 7 -10 15 0 8 5 15 10 15 6 0
10 -7 10 -15z m14 -27 c-3 -4 -29 -6 -58 -5 -30 1 -49 5 -44 8 14 9 107 6 102
-3z"/>
<path d="M148 2363 c-3 -120 -6 -263 -7 -318 -1 -55 1 -164 4 -242 l7 -143 54
0 54 0 0 -46 0 -46 40 3 c21 2 42 0 46 -4 11 -11 343 -8 392 3 123 29 221 110
282 234 67 135 73 232 24 373 -22 63 -38 85 -125 180 -105 114 -149 149 -239
191 -54 26 -61 27 -291 30 l-237 4 -4 -219z m566 -77 c78 -33 102 -177 47
-291 -16 -33 -41 -72 -57 -87 -36 -33 -110 -67 -146 -68 -23 0 -28 4 -28 25 0
28 -13 31 -50 10 -44 -25 -51 -20 -48 33 3 45 5 48 50 72 l48 25 0 103 0 102
60 0 60 0 0 40 0 40 -99 -50 c-55 -28 -104 -50 -110 -50 -12 0 -15 79 -3 97 4
6 21 13 37 16 54 9 201 -1 239 -17z m262 -430 c-4 -18 -11 -24 -22 -19 -15 5
-15 7 0 15 9 5 16 16 16 25 0 9 3 14 6 10 4 -3 4 -17 0 -31z m-21 -66 c4 -6
-1 -7 -11 -3 -13 5 -16 2 -12 -9 4 -8 3 -20 -1 -27 -5 -7 -8 0 -9 18 -1 30 19
43 33 21z m-68 -71 c22 0 24 -2 10 -8 -10 -4 -17 -11 -15 -16 2 -6 -16 -11
-39 -13 -41 -3 -43 -2 -43 26 0 38 9 45 36 27 13 -8 36 -15 51 -16z m-160 -55
c-3 -3 -12 -4 -19 -1 -8 3 -5 6 6 6 11 1 17 -2 13 -5z m88 -14 c-3 -5 -12 -7
-20 -3 -21 7 -19 13 6 13 11 0 18 -4 14 -10z m-468 -37 c-3 -10 -5 -4 -5 12 0
17 2 24 5 18 2 -7 2 -21 0 -30z m373 27 c-8 -5 -31 -9 -50 -9 l-35 2 35 7 c19
4 42 8 50 9 13 1 13 0 0 -9z m-443 -32 c-3 -8 -6 -5 -6 6 -1 11 2 17 5 13 3
-3 4 -12 1 -19z"/>
<path d="M1260 2120 l0 -460 55 0 c55 0 56 -1 62 -32 l7 -33 7 30 7 30 1 -32
c0 -17 -5 -33 -11 -36 -7 -2 4 -6 24 -8 20 -3 34 -1 32 3 -3 4 2 8 10 8 9 0
15 -6 13 -12 -1 -9 13 -14 41 -16 l42 -3 0 407 c0 376 -1 408 -17 420 -11 8
-13 13 -5 14 7 0 12 14 11 38 0 20 -3 31 -6 25 -2 -7 -19 -12 -36 -12 l-32 1
30 8 c30 8 30 8 -7 9 l-38 1 0 55 0 55 -95 0 -95 0 0 -460z m200 -495 c0 -14
-2 -25 -4 -25 -2 0 -6 11 -8 25 -3 14 -1 25 3 25 5 0 9 -11 9 -25z"/>
<path d="M2920 2120 l0 -460 55 0 55 0 0 -43 0 -42 45 3 c28 3 45 0 45 -7 0
-6 19 -11 45 -11 l45 0 0 388 c0 438 -4 492 -31 492 -14 0 -19 -7 -19 -25 0
-16 -6 -25 -16 -25 -12 0 -15 7 -12 30 3 21 -1 35 -14 47 -13 11 -18 30 -18
65 l0 48 -90 0 -90 0 0 -460z"/>
<path d="M3380 2500 l0 -80 50 0 c49 0 50 -1 50 -31 0 -30 1 -30 43 -29 65 3
68 -2 7 -10 l-55 -7 53 -1 c28 -1 52 -6 52 -12 0 -5 10 -10 23 -10 12 0 32 -3
45 -6 l22 -6 0 -324 0 -324 54 0 c59 0 71 -12 62 -63 -4 -24 -2 -25 34 -20 22
3 40 1 44 -6 4 -6 27 -11 51 -11 l45 0 2 378 3 377 144 3 144 3 -7 46 c-3 25
-6 54 -6 64 0 14 -7 19 -30 19 -16 0 -30 5 -30 10 0 6 -7 10 -15 10 -12 0 -15
13 -15 55 l0 55 -385 0 -385 0 0 -80z m830 -69 c0 -6 -4 -13 -10 -16 -5 -3
-10 1 -10 9 0 9 5 16 10 16 6 0 10 -4 10 -9z"/>
<path d="M4730 2488 c-24 -51 -121 -256 -216 -455 -96 -199 -174 -364 -174
-368 0 -3 33 -5 74 -5 67 0 75 -2 81 -21 4 -12 2 -26 -4 -32 -8 -8 -11 -7 -11
3 0 13 -2 13 -10 0 -5 -8 -9 -22 -9 -30 0 -9 3 -10 5 -3 4 8 15 8 37 2 18 -4
41 -8 52 -8 11 0 34 -3 50 -6 30 -6 31 -6 69 84 l39 91 178 0 179 0 20 -40
c16 -32 26 -40 48 -40 15 0 36 -7 46 -15 10 -8 23 -12 27 -9 13 8 11 -10 -3
-24 -9 -9 -9 -12 1 -12 7 0 10 -4 6 -9 -3 -5 0 -13 6 -17 7 -4 9 -3 5 4 -3 6
-2 13 4 17 5 3 10 0 10 -8 0 -8 7 -18 16 -21 26 -10 144 -7 144 4 0 5 -59 132
-131 282 -72 150 -157 327 -189 393 -33 71 -67 128 -82 139 -15 11 -24 25 -21
32 7 20 -16 54 -37 54 -14 0 -28 16 -47 55 -27 55 -27 55 -74 55 l-46 0 -43
-92z m119 -317 l-2 -26 -4 28 c-3 19 -10 27 -24 27 -19 0 -25 11 -12 23 12 13
43 -26 42 -52z m11 -35 c0 -3 -4 -8 -10 -11 -5 -3 -10 -1 -10 4 0 6 5 11 10
11 6 0 10 -2 10 -4z m-76 -23 c12 5 16 0 16 -17 0 -14 3 -31 6 -40 9 -24 -14
-19 -30 7 -16 26 -33 80 -18 58 6 -8 17 -11 26 -8z m141 -39 c14 -31 25 -60
25 -65 0 -5 -25 -9 -55 -9 -43 0 -55 3 -55 15 0 17 47 115 55 115 3 0 16 -25
30 -56z m-255 -323 c0 -6 -4 -13 -10 -16 -5 -3 -10 1 -10 9 0 9 5 16 10 16 6
0 10 -4 10 -9z m-79 -28 c-12 -20 -14 -14 -5 12 4 9 9 14 11 11 3 -2 0 -13 -6
-23z m29 -64 c0 -11 -4 -17 -10 -14 -5 3 -10 13 -10 21 0 8 5 14 10 14 6 0 10
-9 10 -21z m-60 -9 c0 -5 -8 -10 -17 -10 -15 0 -16 2 -3 10 19 12 20 12 20 0z
m0 -30 c0 -5 -4 -10 -10 -10 -5 0 -10 5 -10 10 0 6 5 10 10 10 6 0 10 -4 10
-10z m34 -28 c3 -5 -1 -9 -9 -9 -8 0 -15 4 -15 9 0 4 4 8 9 8 6 0 12 -4 15 -8z
m-41 -9 c-7 -2 -19 -2 -25 0 -7 3 -2 5 12 5 14 0 19 -2 13 -5z"/>
<path d="M5550 2120 l0 -459 58 -3 57 -3 -2 -44 -2 -43 40 5 c21 3 42 1 45 -4
3 -5 129 -9 286 -9 l281 0 -7 38 c-3 20 -6 51 -6 67 0 29 -2 31 -33 27 -48 -5
-67 17 -67 78 l0 50 -182 2 -183 3 -3 275 c-1 151 -5 282 -8 290 -4 13 -6 13
-15 0 -9 -12 -10 -12 -5 3 3 10 6 28 6 38 0 13 4 17 11 13 7 -4 10 -1 7 7 -3
9 -22 15 -51 17 l-47 3 0 55 0 54 -90 0 -90 0 0 -460z m243 333 c-7 -2 -19 -2
-25 0 -7 3 -2 5 12 5 14 0 19 -2 13 -5z m446 -780 c-4 -23 3 -33 21 -33 14 0
20 7 20 22 0 12 3 19 6 15 4 -3 4 -18 0 -32 -6 -24 -9 -25 -79 -24 -55 0 -67
2 -49 10 13 5 28 7 33 3 5 -3 9 0 9 5 0 6 7 11 15 11 8 0 14 3 14 8 -2 12 1
22 6 22 3 0 4 -3 4 -7z m-502 -75 c-3 -7 -5 -2 -5 12 0 14 2 19 5 13 2 -7 2
-19 0 -25z m346 25 c-23 -2 -64 -2 -90 0 -26 2 -7 3 42 3 50 0 71 -1 48 -3z
m-370 -40 c-7 -2 -19 -2 -25 0 -7 3 -2 5 12 5 14 0 19 -2 13 -5z"/>
<path d="M3163 2453 c9 -2 23 -2 30 0 6 3 -1 5 -18 5 -16 0 -22 -2 -12 -5z"/>
<path d="M5547 1150 c38 -42 72 -114 73 -152 l0 -28 -306 0 -306 0 -29 -29
-29 -29 0 -282 0 -282 29 -29 29 -29 134 0 c133 1 133 1 168 30 l35 29 -156 1
c-107 0 -159 4 -167 12 -17 17 -17 519 0 536 9 9 92 12 310 12 l298 0 0 -52
c0 -29 -4 -58 -8 -65 -5 -7 -40 -13 -91 -15 l-82 -3 0 -130 0 -130 35 -5 36
-5 -50 -67 c-72 -95 -154 -166 -239 -207 -94 -44 -181 -49 -248 -13 -60 31
-78 62 -63 106 9 29 8 41 -7 73 -15 32 -19 75 -23 293 l-5 255 -2112 3 -2113
2 0 -290 0 -290 2039 0 2039 0 7 -30 c7 -32 47 -70 74 -70 9 0 33 -20 53 -44
79 -94 209 -118 338 -61 54 24 82 29 160 32 l95 3 -45 -40 c-25 -23 -82 -59
-128 -82 -72 -36 -93 -42 -166 -46 -97 -5 -134 5 -209 55 -51 34 -52 34 -24 5
78 -82 218 -113 343 -77 75 21 172 74 250 136 62 49 62 49 138 49 l77 0 -16
30 -16 30 -139 0 c-76 0 -141 4 -144 8 -3 5 15 29 40 53 25 24 66 77 91 116
l45 73 49 0 c48 0 49 1 49 30 0 26 -4 30 -28 30 -35 0 -41 6 -35 31 3 12 14
19 29 19 19 0 24 5 24 25 0 14 -4 25 -10 25 -15 0 -12 40 4 46 12 5 14 27 10
117 -2 62 -7 128 -10 147 -9 56 -50 133 -91 170 l-38 35 32 -35z m-4193 -296
c24 -9 19 -18 -22 -42 -33 -18 -42 -19 -57 -9 -16 13 -15 15 16 35 38 24 40
25 63 16z m-278 -89 c58 -24 82 -114 50 -190 -21 -49 -60 -65 -156 -65 l-80 0
0 135 0 135 75 0 c44 0 90 -6 111 -15z m334 -15 l0 -30 -60 0 c-57 0 -60 -1
-60 -25 0 -24 3 -25 55 -25 52 0 55 -1 55 -25 0 -25 -1 -25 -55 -19 l-55 7 0
-32 0 -31 60 0 60 0 0 -30 0 -30 -105 0 -105 0 0 135 0 135 105 0 105 0 0 -30z
m152 -55 c9 -44 18 -93 18 -109 0 -50 11 -21 34 86 l21 103 43 3 c52 4 51 6
15 -150 l-28 -118 -72 0 -72 0 -10 38 c-17 62 -51 212 -51 223 0 6 18 9 42 7
l42 -3 18 -80z m428 55 l0 -30 -65 0 c-63 0 -65 -1 -65 -25 0 -24 3 -25 61
-25 57 0 60 -1 57 -22 -3 -21 -7 -23 -60 -20 l-58 4 0 -31 0 -31 65 0 65 0 0
-30 0 -30 -110 0 -110 0 0 135 0 135 110 0 110 0 0 -30z m140 -70 l0 -100 55
0 c57 0 61 -3 49 -47 -6 -22 -11 -23 -95 -23 l-89 0 0 135 0 135 40 0 40 0 0
-100z m344 89 c74 -34 74 -214 0 -248 -30 -13 -104 -14 -138 -1 -36 13 -56 59
-56 127 1 65 16 99 51 119 30 16 110 18 143 3z m342 -22 c27 -31 32 -88 12
-132 -16 -36 -75 -53 -117 -32 l-31 15 0 -44 0 -44 -45 0 -45 0 0 136 0 136
101 -4 c96 -3 102 -4 125 -31z m284 18 c53 -28 65 -130 19 -171 -25 -23 -106
-25 -120 -3 -6 9 -9 -2 -9 -33 l0 -48 -45 0 -45 0 0 135 0 135 85 0 c56 0 96
-5 115 -15z m320 -15 l0 -30 -65 0 c-63 0 -65 -1 -65 -25 0 -24 3 -25 60 -25
57 0 60 -1 60 -24 0 -24 -3 -25 -57 -23 -56 2 -58 1 -58 -23 0 -24 3 -25 63
-28 61 -3 62 -3 62 -32 l0 -30 -105 0 -105 0 0 135 0 135 105 0 105 0 0 -30z
m212 -64 c10 -49 20 -91 22 -93 2 -2 12 39 21 91 l17 96 64 0 64 0 0 -125 c0
-69 1 -128 3 -132 1 -5 -15 -9 -35 -11 l-38 -3 0 85 c0 51 -4 86 -10 86 -5 0
-10 -7 -10 -16 0 -8 -7 -47 -16 -85 l-16 -70 -46 3 -46 3 -17 83 c-9 45 -19
85 -23 89 -3 3 -6 -35 -6 -85 l0 -92 -42 0 -41 0 6 98 c4 53 7 114 7 135 l0
38 62 -3 62 -3 18 -89z m472 72 c-1 -10 -2 -22 -3 -28 0 -5 -28 -10 -61 -10
-57 0 -60 -1 -60 -25 0 -24 3 -25 61 -25 57 0 60 -1 57 -22 -3 -21 -7 -23 -61
-20 l-59 4 4 -29 c3 -27 6 -28 63 -33 56 -5 60 -7 60 -30 0 -25 0 -25 -107
-28 l-108 -3 0 136 0 136 108 -3 c95 -3 107 -5 106 -20z m217 -68 l28 -85 0
88 1 87 45 0 45 0 0 -135 0 -135 -64 0 -64 0 -20 58 c-11 31 -25 71 -31 87 -8
25 -10 15 -10 -57 l-1 -88 -40 0 -40 0 0 135 0 136 62 -3 62 -3 27 -85z m379
50 c0 -38 -2 -40 -30 -40 l-30 0 0 -95 0 -95 -45 0 -45 0 0 94 0 95 -32 3
c-26 2 -34 8 -36 26 -7 49 0 52 113 52 l105 0 0 -40z m898 -42 c-3 -25 -43
-37 -60 -20 -19 19 0 42 32 42 27 0 31 -3 28 -22z m-28 -77 c0 -21 -13 -41
-26 -41 -14 0 -19 31 -7 43 10 10 33 8 33 -2z m-690 -269 c0 -24 -19 -42 -45
-42 -26 0 -45 18 -45 42 0 15 8 18 45 18 37 0 45 -3 45 -18z"/>
<path d="M980 645 c0 -73 1 -75 25 -75 29 0 45 26 45 75 0 49 -16 75 -45 75
-24 0 -25 -2 -25 -75z"/>
<path d="M2365 690 c-7 -33 2 -88 17 -107 6 -7 21 -13 33 -13 28 0 41 41 30
93 -9 42 -22 57 -50 57 -18 0 -25 -7 -30 -30z"/>
<path d="M2680 674 c0 -45 0 -45 33 -42 27 2 33 8 35 31 4 35 -13 57 -44 57
-22 0 -24 -4 -24 -46z"/>
<path d="M2990 674 c0 -45 0 -45 33 -42 27 2 33 8 35 31 4 35 -13 57 -44 57
-22 0 -24 -4 -24 -46z"/>
<path d="M6232 1154 c4 -21 22 -23 26 -1 2 10 -3 17 -13 17 -10 0 -15 -6 -13
-16z"/>
<path d="M5710 875 c0 -8 7 -15 15 -15 8 0 15 7 15 15 0 8 -7 15 -15 15 -8 0
-15 -7 -15 -15z"/>
<path d="M5033 744 c4 -20 12 -81 18 -135 l12 -99 64 0 c68 0 67 -2 79 65 l7
40 9 -52 10 -53 64 0 c73 0 66 -11 84 130 6 47 13 97 16 113 5 26 4 27 -39 27
-52 0 -52 0 -63 -120 -9 -105 -20 -116 -28 -29 -14 148 -15 149 -51 149 -37 0
-38 -4 -51 -133 -4 -37 -10 -70 -14 -72 -4 -2 -10 26 -14 63 -15 147 -13 142
-64 142 l-45 0 6 -36z"/>
<path d="M8130 755 c-14 -17 -5 -51 17 -59 33 -13 57 36 31 62 -16 16 -33 15
-48 -3z"/>
<path d="M6652 664 c4 -21 22 -23 26 -1 2 10 -3 17 -13 17 -10 0 -15 -6 -13
-16z"/>
<path d="M7482 658 c-14 -14 -16 -35 -3 -42 5 -4 7 3 4 14 -4 14 1 22 18 29
14 6 18 10 9 10 -9 1 -21 -4 -28 -11z"/>
<path d="M7740 654 c0 -9 5 -14 12 -12 18 6 21 28 4 28 -9 0 -16 -7 -16 -16z"/>
<path d="M8542 658 c-19 -19 -14 -46 9 -53 30 -10 58 19 43 43 -14 22 -36 26
-52 10z"/>
<path d="M7742 586 c1 -10 8 -17 13 -17 15 1 12 24 -3 29 -9 3 -13 -2 -10 -12z"/>
<path d="M7200 494 c0 -17 22 -14 28 4 2 7 -3 12 -12 12 -9 0 -16 -7 -16 -16z"/>
<path d="M7395 501 c-7 -12 12 -24 25 -16 11 7 4 25 -10 25 -5 0 -11 -4 -15
-9z"/>
<path d="M8050 495 c0 -10 7 -15 18 -13 21 4 19 22 -2 26 -10 2 -16 -3 -16
-13z"/>
<path d="M8800 495 c0 -10 7 -15 18 -13 21 4 19 22 -2 26 -10 2 -16 -3 -16
-13z"/>
<path d="M7360 465 c0 -8 7 -15 15 -15 8 0 15 7 15 15 0 8 -7 15 -15 15 -8 0
-15 -7 -15 -15z"/>
<path d="M7205 440 c-10 -16 7 -31 23 -21 10 6 10 10 -2 20 -10 9 -16 9 -21 1z"/>
<path d="M8700 380 c0 -8 -54 -11 -192 -9 -106 1 -192 -2 -190 -5 1 -4 93 -7
205 -7 153 0 202 3 202 12 0 7 -6 14 -12 17 -7 2 -13 -1 -13 -8z"/>
<path d="M7324 348 l-29 -33 33 29 c17 17 32 31 32 33 0 8 -8 1 -36 -29z"/>
<path d="M8190 365 c0 -8 7 -15 15 -15 8 0 15 7 15 15 0 8 -7 15 -15 15 -8 0
-15 -7 -15 -15z"/>
<path d="M8090 325 c0 -8 7 -15 15 -15 8 0 15 7 15 15 0 8 -7 15 -15 15 -8 0
-15 -7 -15 -15z"/>
<path d="M6055 309 c-10 -15 1 -23 20 -15 9 3 13 10 10 16 -8 13 -22 13 -30
-1z"/>
<path d="M8516 295 c-20 -20 -5 -55 23 -55 28 0 47 28 34 48 -14 23 -38 26
-57 7z"/>
<path d="M7236 293 c-11 -11 -6 -23 9 -23 8 0 15 4 15 9 0 13 -16 22 -24 14z"/>
<path d="M8177 242 c-20 -22 -5 -52 28 -52 28 0 43 33 25 55 -16 20 -33 19
-53 -3z"/>
<path d="M8695 240 c-4 -6 -3 -16 3 -22 6 -6 12 -6 17 2 4 6 3 16 -3 22 -6 6
-12 6 -17 -2z"/>
<path d="M7380 208 c0 -19 -2 -20 -11 -8 -8 12 -10 12 -7 1 7 -23 45 -21 44 2
-1 29 -26 34 -26 5z"/>
<path d="M8820 175 c0 -8 7 -15 15 -15 8 0 15 7 15 15 0 8 -7 15 -15 15 -8 0
-15 -7 -15 -15z"/>
<path d="M5715 151 c-3 -5 -1 -12 5 -16 12 -7 30 2 30 16 0 12 -27 12 -35 0z"/>
<path d="M6077 154 c-9 -10 2 -24 19 -24 8 0 14 7 14 15 0 15 -21 21 -33 9z"/>
<path d="M7230 94 c0 -17 22 -14 28 4 2 7 -3 12 -12 12 -9 0 -16 -7 -16 -16z"/>
<path d="M6860 76 c0 -9 7 -16 16 -16 9 0 14 5 12 12 -6 18 -28 21 -28 4z"/>
<path d="M5710 65 c0 -8 7 -15 15 -15 8 0 15 7 15 15 0 8 -7 15 -15 15 -8 0
-15 -7 -15 -15z"/>
<path d="M6072 68 c5 -15 28 -18 29 -3 0 6 -7 12 -17 13 -10 3 -15 -1 -12 -10z"/>
<path d="M7035 30 c-7 -12 2 -30 16 -30 5 0 9 9 9 20 0 21 -15 27 -25 10z"/>
</g>
</svg>
